<svg width="25" height="23" viewBox="0 0 25 23" fill="none" xmlns="http://www.w3.org/2000/svg">
<path d="M22.5674 4.78781C22.5124 4.72708 22.4436 4.67821 22.3658 4.64468C22.288 4.61114 22.2031 4.59375 22.1172 4.59375H6.19922L5.57715 1.44293C5.55268 1.31872 5.4816 1.20635 5.37631 1.1254C5.27102 1.04446 5.13819 1.00008 5.00098 1H2.58594C2.43054 1 2.2815 1.05679 2.17162 1.15789C2.06173 1.25898 2 1.39609 2 1.53906C2 1.68203 2.06173 1.81914 2.17162 1.92024C2.2815 2.02133 2.43054 2.07813 2.58594 2.07813H4.51172L7.03223 14.8305C7.11125 15.2326 7.3242 15.6022 7.6416 15.888C7.25803 16.1699 6.97151 16.548 6.81672 16.9766C6.66193 17.4052 6.64551 17.8659 6.76945 18.3029C6.89339 18.7399 7.15238 19.1345 7.51505 19.4389C7.87772 19.7433 8.32853 19.9444 8.81289 20.0179C9.29725 20.0915 9.7944 20.0342 10.2441 19.8532C10.6939 19.6721 11.0769 19.375 11.3469 18.9978C11.6169 18.6206 11.7622 18.1795 11.7653 17.7278C11.7684 17.2762 11.6291 16.8334 11.3643 16.4531H16.4639C16.1602 16.8903 16.0234 17.408 16.075 17.9246C16.1266 18.4412 16.3636 18.9274 16.7488 19.3063C17.1339 19.6853 17.6452 19.9355 18.202 20.0175C18.7588 20.0995 19.3295 20.0087 19.8239 19.7593C20.3184 19.5099 20.7086 19.1162 20.9329 18.6402C21.1572 18.1642 21.203 17.6331 21.0629 17.1305C20.9227 16.628 20.6048 16.1827 20.1591 15.8648C19.7135 15.547 19.1655 15.3746 18.6016 15.375H9.14551C8.9168 15.375 8.69534 15.3012 8.51973 15.1664C8.34412 15.0316 8.22551 14.8444 8.18457 14.6374L7.83301 12.8594H19.3926C19.8957 12.8595 20.383 12.6971 20.7694 12.4006C21.1557 12.1041 21.4167 11.6922 21.5068 11.2368L22.6934 5.22895C22.7087 5.15141 22.7053 5.07173 22.6836 4.99552C22.6618 4.9193 22.6222 4.8484 22.5674 4.78781ZM10.5938 17.7109C10.5938 17.9597 10.5136 18.2029 10.3633 18.4097C10.2131 18.6166 9.99958 18.7778 9.74976 18.873C9.49994 18.9682 9.22505 18.9931 8.95984 18.9446C8.69463 18.896 8.45102 18.7763 8.25981 18.6003C8.06861 18.4244 7.9384 18.2003 7.88564 17.9563C7.83289 17.7123 7.85997 17.4594 7.96345 17.2296C8.06693 16.9998 8.24216 16.8033 8.46699 16.6651C8.69183 16.5269 8.95616 16.4531 9.22656 16.4531C9.58916 16.4531 9.93691 16.5856 10.1933 16.8215C10.4497 17.0574 10.5938 17.3773 10.5938 17.7109ZM19.9688 17.7109C19.9688 17.9597 19.8886 18.2029 19.7383 18.4097C19.5881 18.6166 19.3746 18.7778 19.1248 18.873C18.8749 18.9682 18.6 18.9931 18.3348 18.9446C18.0696 18.896 17.826 18.7763 17.6348 18.6003C17.4436 18.4244 17.3134 18.2003 17.2606 17.9563C17.2079 17.7123 17.235 17.4594 17.3384 17.2296C17.4419 16.9998 17.6172 16.8033 17.842 16.6651C18.0668 16.5269 18.3312 16.4531 18.6016 16.4531C18.9642 16.4531 19.3119 16.5856 19.5683 16.8215C19.8247 17.0574 19.9688 17.3773 19.9688 17.7109ZM20.3535 11.0436C20.3126 11.2506 20.194 11.4379 20.0184 11.5727C19.8427 11.7075 19.6213 11.7813 19.3926 11.7813H7.62012L6.41309 5.67188H21.415L20.3535 11.0436Z" fill="white"/>
</svg>
