<svg width="18" height="18" viewBox="0 0 18 18" fill="none" xmlns="http://www.w3.org/2000/svg">
<path d="M17 6L17.354 6.354L17.707 6L17.354 5.646L17 6ZM12 17.5C12.1326 17.5 12.2598 17.4473 12.3536 17.3535C12.4474 17.2598 12.5 17.1326 12.5 17C12.5 16.8674 12.4474 16.7402 12.3536 16.6464C12.2598 16.5527 12.1326 16.5 12 16.5V17.5ZM12.354 11.354L17.354 6.354L16.646 5.646L11.646 10.646L12.354 11.354ZM17.354 5.646L12.354 0.645996L11.646 1.354L16.646 6.354L17.354 5.646ZM17 5.5H6.50003V6.5H17V5.5ZM6.50003 17.5H12V16.5H6.50003V17.5ZM0.500031 11.5C0.500031 13.0913 1.13217 14.6174 2.25739 15.7426C3.38261 16.8679 4.90873 17.5 6.50003 17.5V16.5C5.17395 16.5 3.90218 15.9732 2.9645 15.0355C2.02682 14.0978 1.50003 12.8261 1.50003 11.5H0.500031ZM6.50003 5.5C4.90873 5.5 3.38261 6.13214 2.25739 7.25736C1.13217 8.38257 0.500031 9.9087 0.500031 11.5H1.50003C1.50003 10.1739 2.02682 8.90214 2.9645 7.96446C3.90218 7.02678 5.17395 6.5 6.50003 6.5V5.5Z" fill="white"/>
</svg>
