<svg width="56" height="33" viewBox="0 0 56 33" fill="none" xmlns="http://www.w3.org/2000/svg">
<path d="M0.5 10C0.5 4.7533 4.7533 0.5 10 0.5H28C33.2467 0.5 37.5 4.7533 37.5 10V23C37.5 28.2467 33.2467 32.5 28 32.5H10C4.7533 32.5 0.5 28.2467 0.5 23V10Z" fill="#E0E0E0" stroke="black"/>
<path d="M19.9716 12.2727V21H18.9148V13.3807H18.8636L16.733 14.7955V13.7216L18.9148 12.2727H19.9716Z" fill="black"/>
<path d="M47.0721 6.8703C47.0721 6.93749 47.102 7.00625 47.16 7.05781C47.276 7.16094 47.4658 7.16094 47.5818 7.05781L51.5527 3.52813L55.4656 7.00625C55.5817 7.10938 55.7715 7.10938 55.8875 7.00625C56.0035 6.90313 56.0035 6.73438 55.8875 6.63125L51.7637 2.96406C51.6477 2.86094 51.4578 2.86094 51.3418 2.96406L47.16 6.68125C47.1002 6.73437 47.0721 6.80155 47.0721 6.8703Z" fill="black"/>
<path d="M47.0721 27.1297C47.0721 27.0625 47.102 26.9937 47.16 26.9422C47.276 26.8391 47.4658 26.8391 47.5818 26.9422L51.5527 30.4719L55.4656 26.9937C55.5817 26.8906 55.7715 26.8906 55.8875 26.9937C56.0035 27.0969 56.0035 27.2656 55.8875 27.3687L51.7637 31.0359C51.6477 31.1391 51.4578 31.1391 51.3418 31.0359L47.16 27.3188C47.1002 27.2656 47.0721 27.1984 47.0721 27.1297Z" fill="black"/>
</svg>
