<svg width="17" height="19" viewBox="0 0 17 19" fill="none" xmlns="http://www.w3.org/2000/svg">
<g clip-path="url(#clip0_299_734)">
<path d="M12.5986 6.62337C13.8389 7.46985 15.3584 7.9679 16.9995 7.9679V4.95307C16.6889 4.95318 16.3791 4.92223 16.0753 4.86071V7.23383C14.4343 7.23383 12.915 6.73584 11.6744 5.88942V12.0419C11.6744 15.1197 9.06092 17.6145 5.83729 17.6145C4.63448 17.6145 3.51646 17.2674 2.58777 16.672C3.64775 17.7067 5.12595 18.3486 6.76127 18.3486C9.98516 18.3486 12.5987 15.8537 12.5987 12.7758V6.62337H12.5986ZM13.7388 3.58177C13.1049 2.92064 12.6886 2.06624 12.5986 1.12164V0.733887H11.7227C11.9432 1.93443 12.6953 2.96009 13.7388 3.58177ZM4.62671 14.3102C4.27252 13.867 4.08108 13.3246 4.08198 12.767C4.08198 11.3593 5.27735 10.218 6.75217 10.218C7.02698 10.2178 7.30016 10.2581 7.56213 10.3374V7.25514C7.25599 7.21511 6.94707 7.19805 6.63828 7.20433V9.60338C6.37619 9.52407 6.10286 9.48381 5.82793 9.48401C4.35318 9.48401 3.15787 10.6252 3.15787 12.0331C3.15787 13.0285 3.75532 13.8904 4.62671 14.3102Z" fill="#FF004F"/>
<path d="M11.6744 5.88936C12.9151 6.73577 14.4343 7.23376 16.0753 7.23376V4.86065C15.1593 4.67436 14.3484 4.21741 13.7387 3.58177C12.6952 2.96003 11.9432 1.93437 11.7228 0.733887H9.42226V12.7757C9.41702 14.1795 8.22369 15.3162 6.75207 15.3162C5.88493 15.3162 5.11449 14.9216 4.6266 14.3102C3.75535 13.8904 3.15783 13.0285 3.15783 12.0331C3.15783 10.6254 4.35314 9.48407 5.82789 9.48407C6.11045 9.48407 6.38278 9.52606 6.63825 9.60345V7.20439C3.4712 7.26687 0.924187 9.73735 0.924187 12.7757C0.924187 14.2925 1.55843 15.6674 2.58786 16.6721C3.51655 17.2674 4.6345 17.6147 5.83739 17.6147C9.06108 17.6147 11.6745 15.1196 11.6745 12.0419L11.6744 5.88936Z" fill="black"/>
<path d="M16.0753 4.86065V4.21912C15.2493 4.22026 14.4396 3.99942 13.7387 3.58184C14.3591 4.23023 15.176 4.67736 16.0753 4.86078M11.7227 0.733887C11.7017 0.619178 11.6856 0.503704 11.6744 0.387748V0H8.49788V12.0419C8.49283 13.4456 7.29951 14.5823 5.82781 14.5823C5.4106 14.5829 4.99909 14.4897 4.62652 14.3103C5.11441 14.9216 5.88486 15.3162 6.75199 15.3162C8.22355 15.3162 9.417 14.1796 9.42218 12.7758V0.73395L11.7227 0.733887ZM6.63837 7.2044V6.52132C6.37293 6.4867 6.10534 6.46937 5.83744 6.46943C2.61342 6.46943 0 8.96439 0 12.0419C0 13.9714 1.02711 15.6718 2.58792 16.672C1.55849 15.6674 0.924242 14.2924 0.924242 12.7757C0.924242 9.73741 3.47119 7.26687 6.63837 7.2044Z" fill="#00F2EA"/>
</g>
<defs>
<clipPath id="clip0_299_734">
<rect width="17" height="18.3947" fill="white"/>
</clipPath>
</defs>
</svg>
