<svg width="17" height="19" viewBox="0 0 17 19" fill="none" xmlns="http://www.w3.org/2000/svg">
<g clip-path="url(#clip0_299_738)">
<path d="M17 9.19737C17 4.11783 13.1944 0 8.5 0C3.80561 0 0 4.11783 0 9.19737C0 13.788 3.10834 17.5931 7.17188 18.283V11.856H5.01367V9.19737H7.17188V7.17107C7.17188 4.86598 8.4409 3.59272 10.3825 3.59272C11.3124 3.59272 12.2852 3.77236 12.2852 3.77236V6.03577H11.2134C10.1574 6.03577 9.82812 6.74476 9.82812 7.47214V9.19737H12.1855L11.8087 11.856H9.82812V18.283C13.8917 17.5931 17 13.7881 17 9.19737Z" fill="#1877F2"/>
<path d="M11.8087 11.856L12.1855 9.19742H9.82812V7.47219C9.82812 6.74474 10.1574 6.03582 11.2134 6.03582H12.2852V3.77241C12.2852 3.77241 11.3124 3.59277 10.3824 3.59277C8.4409 3.59277 7.17188 4.86603 7.17188 7.17113V9.19742H5.01367V11.856H7.17188V18.2831C7.61123 18.3575 8.05528 18.3949 8.5 18.3948C8.94472 18.3949 9.38877 18.3575 9.82812 18.2831V11.856H11.8087Z" fill="white"/>
</g>
<defs>
<clipPath id="clip0_299_738">
<rect width="17" height="18.3947" fill="white"/>
</clipPath>
</defs>
</svg>
