<svg width="17" height="19" viewBox="0 0 17 19" fill="none" xmlns="http://www.w3.org/2000/svg">
<g clip-path="url(#clip0_299_746)">
<path d="M13.0156 0H3.98438C1.78387 0 0 1.93022 0 4.31127V14.0835C0 16.4645 1.78387 18.3947 3.98438 18.3947H13.0156C15.2161 18.3947 17 16.4645 17 14.0835V4.31127C17 1.93022 15.2161 0 13.0156 0Z" fill="white"/>
<path d="M13.0156 0H3.98438C1.78387 0 0 1.93022 0 4.31127V14.0835C0 16.4645 1.78387 18.3947 3.98438 18.3947H13.0156C15.2161 18.3947 17 16.4645 17 14.0835V4.31127C17 1.93022 15.2161 0 13.0156 0Z" fill="#1D9BF0"/>
<path d="M13.2528 6.56819C13.2601 6.68223 13.2601 6.79626 13.2601 6.91137C13.2601 10.4177 10.7933 14.4615 6.2825 14.4615V14.4593C4.94993 14.4614 3.64497 14.0485 2.52344 13.2698C2.7173 13.2949 2.91187 13.3077 3.10715 13.3081C4.21162 13.309 5.28432 12.9082 6.15287 12.17C5.64114 12.1595 5.14523 11.9762 4.73446 11.6458C4.32368 11.3155 4.01858 10.8544 3.86179 10.3273C4.2292 10.4039 4.60797 10.3883 4.96891 10.2816C3.82487 10.0314 3.00176 8.94377 3.00176 7.68057V7.64694C3.34281 7.8525 3.72451 7.9664 4.11473 7.97905C3.03722 7.19979 2.70506 5.64867 3.35571 4.43591C3.97134 5.25575 4.73949 5.92626 5.61026 6.40388C6.48102 6.8815 7.43491 7.15554 8.40995 7.2082C8.31274 6.7554 8.3271 6.28292 8.45159 5.83801C8.57609 5.3931 8.80636 4.99136 9.11937 4.67296C10.1071 3.66829 11.6605 3.71981 12.589 4.788C13.1382 4.67068 13.6649 4.45283 14.1463 4.14382C13.9633 4.75823 13.5801 5.27976 13.0683 5.61138C13.5544 5.54935 14.0291 5.40854 14.4766 5.19369C14.1475 5.72701 13.7331 6.19243 13.2528 6.56819Z" fill="white"/>
</g>
<defs>
<clipPath id="clip0_299_746">
<rect width="17" height="18.3947" fill="white"/>
</clipPath>
</defs>
</svg>
