<svg width="17" height="19" viewBox="0 0 17 19" fill="none" xmlns="http://www.w3.org/2000/svg">
<g clip-path="url(#clip0_299_741)">
<path d="M13.0156 0H3.98438C1.78387 0 0 1.93022 0 4.31127V14.0835C0 16.4645 1.78387 18.3947 3.98438 18.3947H13.0156C15.2161 18.3947 17 16.4645 17 14.0835V4.31127C17 1.93022 15.2161 0 13.0156 0Z" fill="url(#paint0_radial_299_741)"/>
<path d="M13.0156 0H3.98438C1.78387 0 0 1.93022 0 4.31127V14.0835C0 16.4645 1.78387 18.3947 3.98438 18.3947H13.0156C15.2161 18.3947 17 16.4645 17 14.0835V4.31127C17 1.93022 15.2161 0 13.0156 0Z" fill="url(#paint1_radial_299_741)"/>
<path d="M8.5006 2.01196C6.69714 2.01196 6.47076 2.02051 5.76247 2.05536C5.05551 2.09043 4.57293 2.2115 4.15072 2.3892C3.7139 2.57271 3.34342 2.81824 2.97434 3.21775C2.60492 3.61719 2.37801 4.01807 2.20788 4.49051C2.04319 4.9475 1.93116 5.46989 1.89935 6.23449C1.86768 7.00096 1.85938 7.24599 1.85938 9.19748C1.85938 11.149 1.86734 11.3931 1.89948 12.1595C1.93202 12.9245 2.04392 13.4467 2.20801 13.9035C2.37774 14.3762 2.60465 14.7771 2.97387 15.1764C3.34289 15.5761 3.71337 15.8222 4.14986 16.0058C4.5724 16.1835 5.05504 16.3045 5.76187 16.3396C6.47023 16.3744 6.69641 16.383 8.4998 16.383C10.3035 16.383 10.5291 16.3744 11.2374 16.3396C11.9444 16.3045 12.4275 16.1835 12.85 16.0058C13.2866 15.8222 13.6566 15.5761 14.0255 15.1764C14.3949 14.7771 14.6218 14.3762 14.792 13.9037C14.9552 13.4467 15.0673 12.9244 15.1005 12.1597C15.1323 11.3933 15.1406 11.149 15.1406 9.19748C15.1406 7.24599 15.1323 7.0011 15.1005 6.23463C15.0673 5.46967 14.9552 4.94758 14.792 4.49073C14.6218 4.01807 14.3949 3.61719 14.0255 3.21775C13.6562 2.8181 13.2868 2.57257 12.8496 2.38927C12.4263 2.2115 11.9434 2.09036 11.2365 2.05536C10.5281 2.02051 10.3026 2.01196 8.49854 2.01196H8.5006ZM7.90487 3.30685C8.08171 3.30656 8.279 3.30685 8.5006 3.30685C10.2737 3.30685 10.4838 3.31375 11.184 3.34817C11.8315 3.38022 12.1829 3.49727 12.417 3.59564C12.7269 3.72584 12.9478 3.88154 13.1801 4.13311C13.4125 4.3846 13.5564 4.62409 13.677 4.95943C13.7679 5.21236 13.8762 5.59261 13.9057 6.29319C13.9375 7.05068 13.9444 7.27818 13.9444 9.19583C13.9444 11.1135 13.9375 11.341 13.9057 12.0985C13.8761 12.799 13.7679 13.1793 13.677 13.4323C13.5567 13.7676 13.4125 14.0064 13.1801 14.2578C12.9477 14.5092 12.727 14.6649 12.417 14.7952C12.1832 14.894 11.8315 15.0107 11.184 15.0428C10.484 15.0772 10.2737 15.0847 8.5006 15.0847C6.72742 15.0847 6.51724 15.0772 5.81725 15.0428C5.16979 15.0104 4.81837 14.8934 4.58409 14.795C4.27424 14.6647 4.05284 14.5091 3.82042 14.2576C3.588 14.0061 3.44416 13.7672 3.3235 13.4317C3.23259 13.1787 3.12428 12.7985 3.0948 12.0979C3.06299 11.3404 3.05661 11.1129 3.05661 9.19403C3.05661 7.27516 3.06299 7.04889 3.0948 6.2914C3.12441 5.59082 3.23259 5.21056 3.3235 4.95728C3.44389 4.62193 3.588 4.38244 3.82048 4.13095C4.05297 3.87946 4.27424 3.72375 4.58416 3.59326C4.81824 3.49446 5.16979 3.3777 5.81725 3.34551C6.42985 3.31555 6.66725 3.30656 7.90487 3.30506V3.30685ZM12.0454 4.49992C11.6054 4.49992 11.2485 4.88578 11.2485 5.36189C11.2485 5.83793 11.6054 6.22414 12.0454 6.22414C12.4853 6.22414 12.8422 5.83793 12.8422 5.36189C12.8422 4.88585 12.4853 4.49964 12.0454 4.49964V4.49992ZM8.5006 5.50739C6.61732 5.50739 5.09037 7.15962 5.09037 9.19748C5.09037 11.2353 6.61732 12.8868 8.5006 12.8868C10.3839 12.8868 11.9104 11.2353 11.9104 9.19748C11.9104 7.15969 10.3838 5.50739 8.50046 5.50739H8.5006ZM8.5006 6.80228C9.72307 6.80228 10.7142 7.87457 10.7142 9.19748C10.7142 10.5202 9.72307 11.5927 8.5006 11.5927C7.27812 11.5927 6.28708 10.5202 6.28708 9.19748C6.28708 7.87457 7.27806 6.80228 8.5006 6.80228Z" fill="white"/>
</g>
<defs>
<radialGradient id="paint0_radial_299_741" cx="0" cy="0" r="1" gradientUnits="userSpaceOnUse" gradientTransform="translate(4.51562 19.8115) rotate(-90) scale(18.2306 15.6702)">
<stop stop-color="#FFDD55"/>
<stop offset="0.1" stop-color="#FFDD55"/>
<stop offset="0.5" stop-color="#FF543E"/>
<stop offset="1" stop-color="#C837AB"/>
</radialGradient>
<radialGradient id="paint1_radial_299_741" cx="0" cy="0" r="1" gradientUnits="userSpaceOnUse" gradientTransform="translate(-2.84757 1.32507) rotate(79.5195) scale(8.12622 31.1317)">
<stop stop-color="#3771C8"/>
<stop offset="0.128" stop-color="#3771C8"/>
<stop offset="1" stop-color="#6600FF" stop-opacity="0"/>
</radialGradient>
<clipPath id="clip0_299_741">
<rect width="17" height="18.3947" fill="white"/>
</clipPath>
</defs>
</svg>
